<?xml version="1.0" encoding="UTF-8" standalone="no"?>
<!DOCTYPE svg PUBLIC "-//W3C//DTD SVG 1.1//EN"
 "http://www.w3.org/Graphics/SVG/1.1/DTD/svg11.dtd">
<!-- Generated by graphviz version 7.1.0 (0)
 -->
<!-- Title: G Pages: 1 -->
<svg width="236pt" height="366pt"
 viewBox="0.00 0.00 236.00 366.00" xmlns="http://www.w3.org/2000/svg" xmlns:xlink="http://www.w3.org/1999/xlink">
<g id="graph0" class="graph" transform="scale(1 1) rotate(0) translate(4 362)">
<title>G</title>
<polygon fill="white" stroke="none" points="-4,4 -4,-362 232,-362 232,4 -4,4"/>
<!-- 0 -->
<g id="node1" class="node">
<title>0</title>
<ellipse fill="none" stroke="black" cx="201" cy="-22" rx="18" ry="18"/>
<ellipse fill="none" stroke="black" cx="201" cy="-22" rx="22" ry="22"/>
<text text-anchor="middle" x="201" y="-18.3" font-family="Times,serif" font-size="14.00">0</text>
</g>
<!-- 1 -->
<g id="node2" class="node">
<title>1</title>
<ellipse fill="none" stroke="black" cx="184" cy="-336" rx="18" ry="18"/>
<ellipse fill="none" stroke="black" cx="184" cy="-336" rx="22" ry="22"/>
<text text-anchor="middle" x="184" y="-332.3" font-family="Times,serif" font-size="14.00">1</text>
</g>
<!-- 2 -->
<g id="node3" class="node">
<title>2</title>
<ellipse fill="none" stroke="black" cx="106" cy="-99" rx="27" ry="18"/>
<text text-anchor="middle" x="106" y="-95.3" font-family="Times,serif" font-size="14.00">2</text>
</g>
<!-- 5 -->
<g id="node6" class="node">
<title>5</title>
<ellipse fill="none" stroke="black" cx="117" cy="-259" rx="27" ry="18"/>
<text text-anchor="middle" x="117" y="-255.3" font-family="Times,serif" font-size="14.00">5</text>
</g>
<!-- 2&#45;&gt;5 -->
<g id="edge1" class="edge">
<title>2&#45;&gt;5</title>
<path fill="none" stroke="black" d="M107.68,-117.32C108.98,-131.05 110.76,-150.74 112,-168 113.48,-188.55 114.76,-211.76 115.65,-229.46"/>
<polygon fill="black" stroke="black" points="112.14,-229.41 116.13,-239.22 119.14,-229.06 112.14,-229.41"/>
<text text-anchor="middle" x="123.5" y="-182.3" font-family="Times,serif" font-size="14.00">&#39;0&#39;</text>
</g>
<!-- 3 -->
<g id="node4" class="node">
<title>3</title>
<ellipse fill="none" stroke="black" cx="27" cy="-99" rx="27" ry="18"/>
<text text-anchor="middle" x="27" y="-95.3" font-family="Times,serif" font-size="14.00">3</text>
</g>
<!-- 3&#45;&gt;5 -->
<g id="edge2" class="edge">
<title>3&#45;&gt;5</title>
<path fill="none" stroke="black" d="M21.18,-116.8C14.76,-138.52 7.25,-176.79 23,-204 35.6,-225.78 60.68,-239.54 81.77,-247.71"/>
<polygon fill="black" stroke="black" points="80.32,-250.91 90.92,-250.98 82.68,-244.32 80.32,-250.91"/>
<text text-anchor="middle" x="31.5" y="-182.3" font-family="Times,serif" font-size="14.00">&#39;1&#39;</text>
</g>
<!-- 4 -->
<g id="node5" class="node">
<title>4</title>
<ellipse fill="none" stroke="black" cx="76" cy="-186" rx="27" ry="18"/>
<text text-anchor="middle" x="76" y="-182.3" font-family="Times,serif" font-size="14.00">4</text>
</g>
<!-- 4&#45;&gt;2 -->
<g id="edge3" class="edge">
<title>4&#45;&gt;2</title>
<path fill="none" stroke="black" d="M81.93,-168.21C86.01,-156.64 91.53,-141.01 96.25,-127.62"/>
<polygon fill="black" stroke="black" points="99.45,-129.07 99.48,-118.48 92.85,-126.74 99.45,-129.07"/>
</g>
<!-- 4&#45;&gt;3 -->
<g id="edge4" class="edge">
<title>4&#45;&gt;3</title>
<path fill="none" stroke="black" d="M66.78,-169.01C59.78,-156.86 50,-139.9 41.89,-125.83"/>
<polygon fill="black" stroke="black" points="45.12,-124.43 37.1,-117.52 39.06,-127.93 45.12,-124.43"/>
</g>
<!-- 5&#45;&gt;4 -->
<g id="edge6" class="edge">
<title>5&#45;&gt;4</title>
<path fill="none" stroke="black" d="M107.7,-241.89C102.77,-233.36 96.6,-222.67 91.01,-212.99"/>
<polygon fill="black" stroke="black" points="94.06,-211.27 86.02,-204.36 87.99,-214.77 94.06,-211.27"/>
</g>
<!-- 6 -->
<g id="node8" class="node">
<title>6</title>
<ellipse fill="none" stroke="black" cx="201" cy="-186" rx="27" ry="18"/>
<text text-anchor="middle" x="201" y="-182.3" font-family="Times,serif" font-size="14.00">6</text>
</g>
<!-- 5&#45;&gt;6 -->
<g id="edge7" class="edge">
<title>5&#45;&gt;6</title>
<path fill="none" stroke="black" d="M133.2,-244.31C145.4,-234 162.34,-219.67 176.24,-207.93"/>
<polygon fill="black" stroke="black" points="178.32,-210.75 183.7,-201.62 173.8,-205.41 178.32,-210.75"/>
</g>
<!-- start -->
<g id="node7" class="node">
<title>start</title>
<text text-anchor="middle" x="117" y="-332.3" font-family="Times,serif" font-size="14.00">start</text>
</g>
<!-- start&#45;&gt;5 -->
<g id="edge5" class="edge">
<title>start&#45;&gt;5</title>
<path fill="none" stroke="black" d="M117,-318.36C117,-309.61 117,-298.64 117,-288.58"/>
<polygon fill="black" stroke="black" points="120.5,-288.89 117,-278.89 113.5,-288.89 120.5,-288.89"/>
</g>
<!-- 7 -->
<g id="node9" class="node">
<title>7</title>
<ellipse fill="none" stroke="black" cx="201" cy="-99" rx="27" ry="18"/>
<text text-anchor="middle" x="201" y="-95.3" font-family="Times,serif" font-size="14.00">7</text>
</g>
<!-- 6&#45;&gt;7 -->
<g id="edge8" class="edge">
<title>6&#45;&gt;7</title>
<path fill="none" stroke="black" d="M201,-167.8C201,-156.58 201,-141.67 201,-128.69"/>
<polygon fill="black" stroke="black" points="204.5,-128.98 201,-118.98 197.5,-128.98 204.5,-128.98"/>
<text text-anchor="middle" x="209.5" y="-138.8" font-family="Times,serif" font-size="14.00">&#39;1&#39;</text>
</g>
<!-- 7&#45;&gt;0 -->
<g id="edge9" class="edge">
<title>7&#45;&gt;0</title>
<path fill="none" stroke="black" d="M201,-80.6C201,-73.17 201,-64.23 201,-55.64"/>
<polygon fill="black" stroke="black" points="204.5,-55.83 201,-45.83 197.5,-55.83 204.5,-55.83"/>
</g>
</g>
</svg>
